<?xml version="1.0"?>
<svg xmlns="http://www.w3.org/2000/svg" xmlns:xlink="http://www.w3.org/1999/xlink" version="1.1" id="Capa_1" x="0px" y="0px" width="512px" height="512px" viewBox="0 0 318.717 318.717" style="enable-background:new 0 0 318.717 318.717;" xml:space="preserve"><g transform="matrix(-1.83697e-16 1 -1 -1.83697e-16 318.717 3.01257e-14)"><g>
	<g>
		<path d="M28.709,31.769C12.877,31.769,0,44.649,0,60.478V203.92c0,15.835,12.883,28.709,28.709,28.709h9.206V114.797    c0-22.617,18.398-41.007,41.006-41.007h189.577V60.483c0-15.834-12.886-28.709-28.709-28.709H28.709V31.769z" data-original="#000000" class="active-path" fill="#000000"/>
		<path d="M78.927,86.088c-15.832,0-28.709,12.88-28.709,28.709v143.442c0,15.835,12.883,28.709,28.709,28.709h211.081    c15.828,0,28.709-12.886,28.709-28.709V114.797c0-15.834-12.881-28.709-28.709-28.709H78.927z" data-original="#000000" class="active-path" fill="#000000"/>
	</g>
</g></g> </svg>
